<svg width="43" height="43" viewBox="0 0 43 43" fill="none" xmlns="http://www.w3.org/2000/svg">
    <path d="M43 21.5C43 33.3741 33.3741 43 21.5 43C9.62588 43 0 33.3741 0 21.5C0 9.62588 9.62588 0 21.5 0C33.3741 0 43 9.62588 43 21.5Z" fill="#404040"/>
    <path fill-rule="evenodd" clip-rule="evenodd" d="M18.1294 3.54567C17.541 3.65866 17.5276 3.74094 17.5276 7.24917V10.8367H18.33H19.1324V14.5766V18.3164H18.1963H17.2602V20.9877V23.659H18.1963H19.1324V30.1035V36.5481L18.3899 36.3998C17.9815 36.3181 16.9603 35.9946 16.1205 35.6807C15.2804 35.3668 13.8607 34.6215 12.9652 34.0242C12.0695 33.4269 10.7239 32.2029 9.9742 31.304C9.22477 30.4049 8.26859 28.9378 7.84921 28.0432C7.42982 27.1488 6.91068 25.5861 6.6951 24.5705C6.4798 23.5551 6.30354 22.1831 6.30354 21.522C6.30354 20.8608 6.47766 19.4982 6.69083 18.494C6.90373 17.4899 7.36617 16.0474 7.71842 15.2885C8.07067 14.5296 8.90141 13.1787 9.56471 12.2862C10.228 11.3937 11.5019 10.1315 12.3955 9.48131L14.0204 8.29899L14.0354 6.62942C14.0439 5.7113 13.9404 4.95986 13.8056 4.95986C13.6708 4.95986 12.67 5.55476 11.5816 6.28189C10.4931 7.00902 9.04102 8.20336 8.35471 8.93637C7.6684 9.66911 6.64295 10.9853 6.0762 11.8612C5.50944 12.7368 4.71 14.4574 4.29944 15.6846C3.79126 17.2033 3.50989 18.692 3.41815 20.3471C3.34273 21.7082 3.42457 23.5896 3.60404 24.6212C3.78056 25.6347 4.23338 27.2452 4.61023 28.2002C4.98709 29.1552 5.82746 30.7436 6.47766 31.7301C7.12786 32.7164 8.36461 34.1589 9.22637 34.9357C10.0879 35.7122 11.4554 36.7468 12.2653 37.2349C13.0752 37.7227 14.6165 38.4271 15.6901 38.8C16.8041 39.1868 18.537 39.5394 19.7248 39.6206L21.807 39.7633L21.8124 36.3191L21.8177 32.875L24.9973 29.5359C27.2702 27.1491 28.2226 26.3111 28.3371 26.5975C28.4251 26.8178 29.1326 29.264 29.909 32.0333L31.3209 37.0682L32.6486 36.0189C33.3791 35.4416 34.6062 34.2804 35.3757 33.4387C36.1543 32.5868 37.2506 30.9375 37.847 29.7202C38.4368 28.5168 39.11 26.8112 39.3429 25.9296C39.6027 24.9471 39.7653 23.2412 39.7629 21.522C39.7605 19.8449 39.5901 18.0725 39.3392 17.1143C39.1081 16.2328 38.4186 14.4897 37.8064 13.2409C36.9125 11.4172 36.242 10.5218 34.3989 8.69221C32.8078 7.11213 31.514 6.10692 30.1786 5.41238C29.1197 4.86129 27.325 4.17369 26.191 3.88385C24.7299 3.51067 23.3417 3.36776 21.4299 3.3934C19.9457 3.41344 18.4603 3.48182 18.1294 3.54567ZM24.9484 6.69674C25.8668 6.91312 27.4315 7.48237 28.4251 7.96161C29.6349 8.54529 30.8572 9.45113 32.1244 10.7032C33.1651 11.7316 34.4005 13.2519 34.8699 14.0816C35.339 14.9113 35.962 16.5234 36.254 17.6638C36.5461 18.8044 36.7831 20.5296 36.7809 21.4979C36.7788 22.466 36.5942 24.0333 36.3706 24.9805C36.147 25.9278 35.6025 27.4304 35.1606 28.3196C34.7185 29.2089 34.0231 30.3405 33.615 30.8339L32.873 31.7312L31.8519 28.029C31.2902 25.9929 30.7734 24.1767 30.7034 23.9929C30.6263 23.7912 30.7991 23.659 31.1396 23.659C31.6751 23.659 31.7031 23.5263 31.7031 20.9877V18.3164H30.4118H29.1205L27.998 14.2427C27.3804 12.002 26.7524 9.71826 26.6021 9.16717L26.3287 8.16543H23.3992H20.4697V7.23047V6.29551L21.8739 6.29952C22.6463 6.30166 24.0296 6.48037 24.9484 6.69674ZM24.3236 12.1267C24.5654 13.2767 24.5589 13.2909 23.1869 14.6612L21.807 16.0394V13.4228V10.806L22.9437 10.8883C24.0497 10.9682 24.0871 11.0016 24.3236 12.1267ZM26.0661 18.116C26.0773 18.2261 25.4603 18.3164 24.6948 18.3164H23.3032L24.3562 17.2393L25.4092 16.1623L25.7275 17.039C25.9024 17.5211 26.0549 18.006 26.0661 18.116ZM24.782 26.0271C23.5915 27.3297 22.435 28.5464 22.2122 28.7313C21.8549 29.0275 21.807 28.7481 21.807 26.3629V23.659H24.3768H26.9466L24.782 26.0271Z" fill="white"/>
</svg>
