<svg width="29" height="29" viewBox="0 0 29 29" xmlns="http://www.w3.org/2000/svg">
    <path d="M25.8218 12.9257C25.8218 5.80001 20.0285 0 12.9109 0C5.79335 0 0 5.80001 0 12.9257C0 20.0515 5.79335 25.8515 12.9109 25.8515C15.9895 25.8515 18.8367 24.7578 21.0547 22.9348L27.1129 29L29 27.1107L22.9418 21.0793C24.7296 18.8586 25.8219 16.0082 25.8219 12.9262L25.8218 12.9257ZM12.9109 23.2C7.24985 23.2 2.64839 18.5932 2.64839 12.9257C2.64839 7.2583 7.24997 2.65143 12.9109 2.65143C18.5718 2.65143 23.1734 7.2583 23.1734 12.9257C23.1734 18.5932 18.5718 23.2 12.9109 23.2Z"/>
</svg>
