<svg width="23" height="19" viewBox="0 0 23 19" xmlns="http://www.w3.org/2000/svg">
    <path d="M0.600496 19C0.586242 19.0001 0.571987 18.9995 0.557898 18.9981C0.348833 18.9791 0.181385 18.8216 0.15468 18.6192C-0.447297 14.0773 0.725031 9.85255 3.37042 7.02558C4.58058 5.73768 6.08431 4.74296 7.76109 4.12098C9.62201 3.4487 11.5981 3.1283 13.5829 3.17722V0.436778C13.5829 0.264008 13.6876 0.107483 13.8501 0.037418C14.0125 -0.032484 14.2022 -0.00286824 14.3338 0.113055L22.8525 7.61117C22.9464 7.69397 23 7.81149 23 7.93474C23 8.05798 22.9464 8.1755 22.8525 8.2583L14.3338 15.7564C14.2022 15.8723 14.0126 15.9021 13.8501 15.8321C13.6877 15.7622 13.5829 15.6058 13.5829 15.433V12.3025C8.66792 12.1439 3.22991 12.1525 1.02786 18.6991C0.967407 18.8786 0.795043 18.9999 0.60071 18.9999L0.600496 19ZM13.3858 4.0494C9.44652 4.0494 6.22264 5.275 4.03485 7.6129C1.92307 9.86971 0.820575 13.1034 0.902323 16.6755C3.74057 11.1003 9.41103 11.2894 14.0471 11.4443C14.2891 11.4524 14.4809 11.6454 14.4809 11.8806V14.4487L21.8807 7.93465L14.4809 1.42057V3.62292C14.4809 3.74139 14.4315 3.85477 14.3438 3.93709C14.2562 4.01925 14.1379 4.06336 14.016 4.05922C13.8041 4.05238 13.5939 4.04903 13.3855 4.04903L13.3858 4.0494Z"/>
</svg>
