<svg xmlns="http://www.w3.org/2000/svg" xmlns:xlink="http://www.w3.org/1999/xlink"><defs><clipPath id="clip0_445_1510"><path fill="#fff" d="M0 0h24v24H0z"/></clipPath></defs><symbol id="chevron-right" viewBox="0 0 10 17"><path fill-rule="evenodd" clip-rule="evenodd" d="M9.776 8.388L1.918.53a.75.75 0 00-1.06 1.061l6.797 6.797-6.797 6.797a.75.75 0 001.06 1.061l7.858-7.858z"/></symbol><symbol id="close" viewBox="0 0 21 12"><path d="M15.81 1l-5.188 5.19 5.189 5.188M5.19 1l5.188 5.19-5.189 5.188" fill="transparent"/></symbol><symbol id="logo" viewBox="0 0 43 43"><path d="M43 21.5C43 33.374 33.374 43 21.5 43S0 33.374 0 21.5 9.626 0 21.5 0 43 9.626 43 21.5z" fill="#404040"/><path fill-rule="evenodd" clip-rule="evenodd" d="M18.13 3.546c-.589.113-.602.195-.602 3.703v3.588h1.604v7.48H17.26v5.341h1.872v12.889l-.742-.148c-.409-.082-1.43-.405-2.27-.72-.84-.313-2.26-1.059-3.155-1.656-.896-.597-2.241-1.821-2.99-2.72-.75-.9-1.706-2.366-2.126-3.26-.42-.895-.938-2.458-1.154-3.474-.215-1.015-.391-2.387-.391-3.048s.174-2.024.387-3.028c.213-1.004.675-2.447 1.027-3.205.353-.76 1.183-2.11 1.847-3.003.663-.892 1.937-2.154 2.83-2.805L14.02 8.3l.015-1.67c.009-.918-.095-1.67-.23-1.67-.134 0-1.135.596-2.223 1.323-1.089.727-2.541 1.921-3.227 2.654-.687.733-1.712 2.05-2.279 2.925-.567.876-1.366 2.596-1.777 3.824a17.352 17.352 0 00-.88 4.662c-.076 1.361.006 3.243.185 4.274.177 1.014.63 2.624 1.006 3.58.377.954 1.217 2.543 1.868 3.53.65.985 1.887 2.428 2.748 3.205.862.776 2.23 1.81 3.04 2.299.81.488 2.35 1.192 3.424 1.565 1.114.387 2.847.74 4.035.82l2.082.143.005-3.444.006-3.444 3.18-3.34c2.272-2.386 3.225-3.224 3.34-2.938.087.22.795 2.667 1.571 5.436l1.412 5.035 1.328-1.05c.73-.576 1.957-1.738 2.727-2.58.778-.851 1.875-2.5 2.471-3.718.59-1.203 1.263-2.909 1.496-3.79.26-.983.422-2.689.42-4.408-.002-1.677-.173-3.45-.424-4.408-.23-.881-.92-2.624-1.533-3.873-.893-1.824-1.564-2.72-3.407-4.549-1.591-1.58-2.885-2.585-4.22-3.28-1.06-.55-2.854-1.238-3.988-1.528-1.461-.373-2.85-.516-4.761-.49-1.484.02-2.97.088-3.3.152zm6.818 3.15c.919.217 2.483.786 3.477 1.266 1.21.583 2.432 1.49 3.7 2.741 1.04 1.029 2.276 2.549 2.745 3.379.469.83 1.092 2.441 1.384 3.582.292 1.14.53 2.866.527 3.834-.002.968-.187 2.535-.41 3.482-.224.948-.769 2.45-1.21 3.34-.443.889-1.138 2.02-1.546 2.514l-.742.897-1.021-3.702c-.562-2.036-1.079-3.852-1.149-4.036-.077-.202.096-.334.437-.334.535 0 .563-.133.563-2.671v-2.672h-2.582l-1.123-4.073c-.618-2.241-1.246-4.525-1.396-5.076l-.273-1.002h-5.86V6.296l1.405.004c.772.002 2.156.18 3.074.397zm-.624 5.43c.241 1.15.235 1.165-1.137 2.535l-1.38 1.378v-5.233l1.137.082c1.106.08 1.143.114 1.38 1.239zm1.742 5.99c.011.11-.606.2-1.371.2h-1.392l1.053-1.077 1.053-1.077.319.877c.174.482.327.967.338 1.077zm-1.284 7.911c-1.19 1.303-2.347 2.52-2.57 2.704-.357.296-.405.017-.405-2.368v-2.704h5.14l-2.165 2.368z" fill="#fff"/></symbol><symbol id="search" viewBox="0 0 29 29"><path d="M25.822 12.926C25.822 5.8 20.029 0 12.91 0 5.793 0 0 5.8 0 12.926s5.793 12.926 12.91 12.926c3.08 0 5.927-1.094 8.145-2.917L27.113 29 29 27.11l-6.058-6.03a13 13 0 002.88-8.154zM12.91 23.2c-5.661 0-10.263-4.607-10.263-10.274C2.648 7.258 7.25 2.65 12.911 2.65c5.66 0 10.262 4.607 10.262 10.275 0 5.667-4.601 10.274-10.262 10.274z"/></symbol><symbol id="share" viewBox="0 0 23 19"><path d="M.6 19c-.014 0-.028 0-.042-.002a.443.443 0 01-.403-.379c-.602-4.542.57-8.766 3.215-11.593A11.518 11.518 0 017.761 4.12a15.983 15.983 0 015.822-.944V.437c0-.173.105-.33.267-.4a.46.46 0 01.484.076l8.518 7.498a.432.432 0 010 .647l-8.518 7.498a.46.46 0 01-.484.076.436.436 0 01-.267-.399v-3.13c-4.915-.16-10.353-.15-12.555 6.396-.06.18-.233.3-.427.3V19zM13.386 4.05c-3.94 0-7.163 1.225-9.351 3.563C1.923 9.87.82 13.103.902 16.676c2.839-5.576 8.509-5.387 13.145-5.232a.443.443 0 01.434.437v2.568l7.4-6.514-7.4-6.514v2.202a.43.43 0 01-.137.314.457.457 0 01-.328.122c-.212-.007-.422-.01-.63-.01z"/></symbol><symbol id="upload" viewBox="0 0 24 24"><g clip-path="url(#clip0_445_1510)" fill="transparent" stroke="#404040" stroke-width="2" stroke-linecap="round" stroke-linejoin="round"><path d="M16 16l-4-4-4 4m4-4v9"/><path d="M20.39 18.39A5 5 0 0018 9h-1.26A8 8 0 103 16.3"/><path d="M16 16l-4-4-4 4"/></g></symbol></svg>